<svg width="148" height="31" viewBox="0 0 148 31" fill="none" xmlns="http://www.w3.org/2000/svg">
<g style="mix-blend-mode:multiply">
<path d="M3.13635 14.9928C2.60118 15.5283 2.60118 16.3967 3.13635 16.9323L7.80342 21.6026C6.68969 22.1333 5.38792 22.1333 4.26937 21.5977C3.86438 21.4048 3.47385 21.1394 3.13635 20.8017L1.20299 18.867C0.860673 18.5244 0.60032 18.1385 0.402644 17.7284C-0.127704 16.6139 -0.127704 15.3112 0.402644 14.1967C0.60032 13.7866 0.860673 13.4006 1.20299 13.0581C1.5453 12.7155 1.93101 12.455 2.33601 12.262C2.82778 12.0304 3.34849 11.8953 3.88366 11.8712C4.55865 11.8278 5.2481 11.958 5.87006 12.2572C5.96166 12.3006 6.04845 12.3488 6.13523 12.4019C6.4438 12.5756 6.73308 12.7975 6.99825 13.0677L8.93161 15.0024C9.46679 15.538 10.3298 15.5331 10.865 14.9976C11.4001 14.462 11.4001 13.6033 10.865 13.0725L6.19791 8.40226C7.31646 7.86672 8.62305 7.86672 9.73196 8.39743C10.1418 8.59525 10.5227 8.86543 10.865 9.20798L12.7983 11.1427C13.1358 11.4804 13.4058 11.8616 13.5987 12.2668C14.1339 13.3861 14.1339 14.6936 13.5987 15.8081C13.4058 16.2134 13.131 16.5994 12.7983 16.9323C12.4657 17.2652 12.08 17.5402 11.6653 17.7428C11.1735 17.9744 10.6577 18.1047 10.1225 18.1288C9.4475 18.1722 8.75805 18.042 8.12645 17.738C8.03967 17.6994 7.95288 17.6512 7.86128 17.5933C7.55271 17.4196 7.25861 17.2025 6.99825 16.9419L5.06489 15.0072C4.52972 14.4717 3.6667 14.4669 3.13153 15.0024L3.13635 14.9928Z" fill="#FFCB00"/>
</g>
<g style="mix-blend-mode:multiply">
<path d="M8.93155 20.792C8.58924 21.1346 8.21317 21.3999 7.79854 21.6026C6.6848 22.1333 5.38304 22.1333 4.26449 21.5977C3.85949 21.4048 3.46896 21.1394 3.13147 20.8017L1.19811 18.867C0.85579 18.5244 0.595437 18.1385 0.397762 17.7284C-0.132587 16.6139 -0.132587 15.3112 0.397762 14.1967L5.06483 18.867C5.6 19.4025 6.46302 19.3977 6.99819 18.8622C7.53336 18.3266 7.53336 17.4678 6.99819 16.9371L5.06483 15.0024C4.79966 14.7371 4.57787 14.4428 4.4043 14.134C4.35609 14.0471 4.30306 13.9603 4.25966 13.8686C3.96074 13.2462 3.83056 12.5563 3.87396 11.8808C3.89806 11.3453 4.02824 10.8291 4.25966 10.337C4.45734 9.92686 4.71769 9.54088 5.06001 9.19833C5.40232 8.85578 5.78803 8.59525 6.19303 8.40226C7.31158 7.86672 8.61817 7.86672 9.72708 8.39743C10.1369 8.59525 10.5178 8.86543 10.8601 9.20798L12.7935 11.1427C13.131 11.4804 13.4009 11.8616 13.5938 12.2668C14.129 13.3861 14.129 14.6936 13.5938 15.8081L8.92673 11.1378C8.39156 10.6023 7.52854 10.5975 6.99337 11.133C6.4582 11.6686 6.4582 12.537 6.99337 13.0725L8.92673 15.0072C9.18709 15.2678 9.40887 15.5524 9.58726 15.866C9.64511 15.9577 9.69333 16.0445 9.7319 16.1314C10.0356 16.7586 10.161 17.4437 10.1224 18.1288C10.0983 18.6643 9.96332 19.1854 9.7319 19.6775C9.53904 20.0828 9.26423 20.4688 8.93155 20.8017V20.792Z" fill="#804D00"/>
</g>
<path d="M43.1651 10.8842C42.5548 9.96346 41.5685 9.48413 40.3788 9.48413C39.1891 9.48413 38.3753 9.90139 37.7719 10.7428C37.1891 9.90139 36.358 9.48413 35.2131 9.48413C33.1648 9.48413 31.6992 10.8566 31.6992 13.4636V19.5121H33.9338V13.4636C33.9338 12.2291 34.3717 11.6256 35.2856 11.6256C36.1994 11.6256 36.658 12.2291 36.658 13.4636V19.5121H38.8926V13.4636C38.8926 12.2291 39.3512 11.6256 40.265 11.6256C41.1789 11.6256 41.6168 12.2291 41.6168 13.4636V14.5498C41.6168 15.9706 42.1065 17.1568 43.0824 18.1569C43.3272 18.4017 43.579 18.6086 43.8514 18.7879V13.4636C43.8514 12.3946 43.6065 11.5325 43.1686 10.8842H43.1651Z" fill="#1A1A1A"/>
<path d="M50.2895 10.8498C49.2894 9.94283 48.0825 9.47729 46.7135 9.47729C45.3444 9.47729 44.1479 9.93593 43.1651 10.8842C43.1375 10.9049 43.1064 10.936 43.0789 10.9636C42.103 11.9636 41.6133 13.1533 41.6133 14.5499C41.6133 15.9465 42.103 17.1569 43.0789 18.1569C43.3237 18.4018 43.5754 18.6087 43.8478 18.788C44.6755 19.3501 45.6307 19.6225 46.7135 19.6225C47.4238 19.6225 48.1652 19.4225 48.6618 19.2328V16.7327C48.1514 17.1983 47.4756 17.481 46.7135 17.481C45.1031 17.481 43.8478 16.2465 43.8478 14.5499C43.8478 12.8533 45.1065 11.6188 46.7135 11.6188C48.3204 11.6188 49.4791 12.7809 49.5653 14.3637C49.5722 14.4223 49.5722 14.4844 49.5722 14.5499V19.5052H51.8068V14.6189C51.8068 13.0085 51.2964 11.7532 50.2895 10.8463V10.8498Z" fill="#1A1A1A"/>
<path d="M54.9761 19.5122H52.7656V13.6016C52.7656 10.7394 54.3726 9.59802 56.5347 9.59802H57.0692V11.7395H56.652C55.5347 11.7395 54.9761 12.3671 54.9761 13.6016V19.5122Z" fill="#1A1A1A"/>
<path d="M62.0038 17.3741V19.5155H61.5383C59.2796 19.5155 57.7002 18.3983 57.7002 15.5361V5.18054H59.9106V9.60139H61.8176V11.7428H59.9106V15.5361C59.9106 16.7706 60.4451 17.3741 61.5383 17.3741H62.0038Z" fill="#1A1A1A"/>
<path d="M75.7109 5.17725V19.5122H77.9455V5.17725H75.7109ZM82.9664 10.6912C82.1974 9.88086 81.2491 9.4843 80.149 9.4843C79.6904 9.4843 79.2593 9.55671 78.849 9.70844V11.9292C79.1421 11.7292 79.5111 11.6292 79.918 11.6292C81.1249 11.6292 81.9146 12.4913 81.9146 14.1638V19.5157H84.1492V14.1638C84.1492 12.6465 83.7526 11.4844 82.9629 10.6947L82.9664 10.6912Z" fill="#1A1A1A"/>
<path d="M86.5048 10.9738C87.5049 9.9738 88.6911 9.48413 90.1119 9.48413C91.5326 9.48413 92.6947 9.9738 93.6948 10.9738C94.6948 11.9739 95.1845 13.1601 95.1845 14.5567C95.1845 15.9533 94.6948 17.1637 93.6948 18.1638C92.6947 19.1396 91.5085 19.6293 90.1119 19.6293C88.7153 19.6293 87.5049 19.1396 86.5048 18.1638C85.5048 17.1637 85.0151 15.9775 85.0151 14.5567C85.0151 13.136 85.5048 11.9739 86.5048 10.9738ZM87.2497 14.5567C87.2497 15.4188 87.529 16.1154 88.0635 16.674C88.6222 17.2085 89.298 17.4879 90.1119 17.4879C90.9257 17.4879 91.6016 17.2085 92.1361 16.674C92.6947 16.1154 92.974 15.4188 92.974 14.5567C92.974 13.6946 92.6947 12.998 92.1361 12.4635C91.6016 11.9049 90.9257 11.6256 90.1119 11.6256C89.298 11.6256 88.6222 11.9049 88.0635 12.4635C87.5049 13.0222 87.2497 13.6981 87.2497 14.5567Z" fill="#1A1A1A"/>
<path d="M104.75 10.9704C103.774 9.97036 102.56 9.48413 101.143 9.48413C99.7259 9.48413 98.5569 9.94966 97.5568 10.8566C96.5568 11.7635 96.0396 13.0187 96.0396 14.6291V25.1261H98.2741V14.5567C98.2741 14.4567 98.281 14.3567 98.2879 14.2636C98.4155 12.7394 99.588 11.6256 101.14 11.6256C102.692 11.6256 103.998 12.8843 103.998 14.5567C103.998 16.2292 102.74 17.4879 101.14 17.4879C100.378 17.4879 99.6949 17.2085 99.1845 16.7396V19.2603C99.6949 19.4604 100.405 19.6259 101.14 19.6259C102.585 19.6259 103.792 19.1362 104.767 18.1603C105.743 17.1603 106.233 15.9775 106.233 14.5533C106.233 13.1291 105.743 11.967 104.747 10.9669L104.75 10.9704Z" fill="#1A1A1A"/>
<path d="M109.333 18.7224V25.1226H107.099V14.6257C107.099 13.0187 107.609 11.7635 108.612 10.8566C109.616 9.94966 110.823 9.48413 112.195 9.48413C113.568 9.48413 114.826 9.9738 115.802 10.9738C116.802 11.9739 117.292 13.1601 117.292 14.5567C117.292 15.9533 116.802 17.1637 115.827 18.1638C114.851 19.1396 113.64 19.6293 112.195 19.6293C111.102 19.6293 110.054 19.2569 109.657 18.9534L109.333 18.7189V18.7224ZM112.195 11.6256C110.544 11.6256 109.333 12.8808 109.333 14.5567C109.333 16.2326 110.588 17.4879 112.195 17.4879C113.802 17.4879 115.058 16.2533 115.058 14.5567C115.058 12.8601 113.802 11.6256 112.195 11.6256Z" fill="#1A1A1A"/>
<path d="M118.361 5.57373C118.895 5.03923 119.782 5.03923 120.316 5.57373C120.851 6.10823 120.851 6.99447 120.316 7.52897C119.782 8.06347 118.895 8.06347 118.361 7.52897C117.826 6.99447 117.826 6.10823 118.361 5.57373ZM118.223 19.5156V9.60146H120.457V19.5156H118.223Z" fill="#1A1A1A"/>
<path d="M129.134 11.0876C129.02 10.929 128.882 10.7876 128.737 10.6497C127.896 9.8807 126.899 9.48413 125.754 9.48413C124.61 9.48413 123.613 9.8807 122.778 10.6497C121.961 11.4187 121.544 12.5808 121.544 14.1636V19.5155H123.779V14.1636C123.779 12.4911 124.547 11.629 125.754 11.629C126.961 11.629 127.758 12.5118 127.758 14.1636V14.5602C127.758 15.9809 128.248 17.1672 129.23 18.1672C129.468 18.4051 129.727 18.6189 129.993 18.7983V14.1636C129.993 12.8774 129.706 11.8428 129.13 11.0876H129.134Z" fill="#1A1A1A"/>
<path d="M136.448 10.8566C135.448 9.94966 134.234 9.48413 132.861 9.48413C131.489 9.48413 130.23 9.9738 129.234 10.9704C129.199 11.0049 129.161 11.0497 129.134 11.0842C128.213 12.0601 127.761 13.2119 127.761 14.5533C127.761 15.974 128.251 17.1603 129.234 18.1603C129.472 18.3982 129.73 18.612 129.996 18.7914C130.813 19.3431 131.772 19.6259 132.861 19.6259C133.579 19.6259 134.32 19.4259 134.817 19.2362V16.7292C134.306 17.2016 133.624 17.4844 132.861 17.4844C131.251 17.4844 129.996 16.2499 129.996 14.5533C129.996 12.8567 131.254 11.6221 132.861 11.6221C134.468 11.6221 135.72 12.8808 135.72 14.5533V20.5604C135.72 22.257 134.886 23.326 133.234 23.326C131.675 23.326 130.813 22.3501 130.741 20.7914H128.506C128.578 22.2122 129.044 23.3053 129.927 24.1191C130.81 24.9364 131.903 25.3537 133.23 25.3537C134.558 25.3537 135.717 24.9157 136.599 24.0536C137.513 23.1915 137.951 22.026 137.951 20.5638V14.6291C137.951 13.0187 137.441 11.7635 136.444 10.8566H136.448Z" fill="#1A1A1A"/>
<path d="M98.2911 14.2637C98.2842 14.3568 98.2773 14.4568 98.2773 14.5568V14.2637H98.2911Z" fill="#1A1A1A"/>
<path d="M31.3027 15.6913C31.144 15.0499 30.7785 14.4395 30.2647 14.0119C30.0061 13.7981 29.7061 13.6292 29.3819 13.5326C29.0129 13.4223 28.6578 13.4567 28.2819 13.4567H27.1129C26.9267 13.4499 26.7611 13.3912 26.6163 13.2981C26.3853 13.1464 26.2439 12.8947 26.2439 12.5878C26.2439 12.0912 26.6232 11.7119 27.1198 11.7119H31.3303V9.47729H27.1198C27.0129 9.47729 26.9129 9.48419 26.8025 9.49799H26.768C25.2231 9.67041 24.0093 10.9842 24.0093 12.5878C24.0093 12.7947 24.03 12.9981 24.0817 13.1981C24.0886 13.2326 24.0955 13.2636 24.1024 13.2981C24.2335 13.9464 24.6231 14.5258 25.1266 14.9465C25.6025 15.343 26.1163 15.5741 26.7404 15.5534C27.2543 15.5396 27.7646 15.5292 28.275 15.5292C28.4681 15.5292 28.6405 15.5879 28.7853 15.6879C29.0095 15.8465 29.1509 16.1051 29.1509 16.4051C29.1509 16.8948 28.7784 17.2534 28.2819 17.2741H24.0059V19.5087H28.275C28.3336 19.5087 28.3888 19.5018 28.4474 19.5018C28.4681 19.5018 28.4991 19.4949 28.5198 19.4949C28.5474 19.488 28.5715 19.488 28.5922 19.488C28.6336 19.488 28.6853 19.4811 28.7302 19.4742C28.7888 19.4604 28.844 19.4535 28.9026 19.4397C28.944 19.4328 28.9888 19.4259 29.0336 19.4121C29.0405 19.4121 29.0474 19.4121 29.0543 19.4052H29.0888C29.2026 19.3708 29.3129 19.3328 29.4198 19.2845C29.4336 19.2776 29.4543 19.2707 29.4716 19.2639C29.5785 19.2225 29.6957 19.1707 29.7888 19.1121C29.8612 19.0707 29.9337 19.0328 29.9957 18.9742C30.6716 18.5431 31.1613 17.8328 31.3165 17.0189C31.3682 16.8189 31.3889 16.6155 31.3889 16.4086C31.3889 16.1568 31.3613 15.9189 31.3027 15.6913Z" fill="#1A1A1A"/>
<path d="M74.2768 15.6913C74.1182 15.0499 73.7526 14.4395 73.2388 14.0119C72.9802 13.7981 72.6802 13.6292 72.356 13.5326C71.9871 13.4223 71.6319 13.4567 71.256 13.4567H70.087C69.9008 13.4499 69.7352 13.3912 69.5904 13.2981C69.3594 13.1464 69.218 12.8947 69.218 12.5878C69.218 12.0912 69.5973 11.7119 70.0939 11.7119H74.3044V9.47729H70.0939C69.987 9.47729 69.887 9.48419 69.7766 9.49799H69.7421C68.1973 9.67041 66.9834 10.9842 66.9834 12.5878C66.9834 12.7947 67.0041 12.9981 67.0558 13.1981C67.0627 13.2326 67.0696 13.2636 67.0765 13.2981C67.2076 13.9464 67.5972 14.5258 68.1007 14.9465C68.5766 15.343 69.0904 15.5741 69.7146 15.5534C70.2284 15.5396 70.7387 15.5292 71.2491 15.5292C71.4422 15.5292 71.6146 15.5879 71.7595 15.6879C71.9836 15.8465 72.125 16.1051 72.125 16.4051C72.125 16.8948 71.7526 17.2534 71.256 17.2741H66.98V19.5087H71.2491C71.3077 19.5087 71.3629 19.5018 71.4215 19.5018C71.4422 19.5018 71.4732 19.4949 71.4939 19.4949C71.5215 19.488 71.5457 19.488 71.5664 19.488C71.6077 19.488 71.6595 19.4811 71.7043 19.4742C71.7629 19.4604 71.8181 19.4535 71.8767 19.4397C71.9181 19.4328 71.9629 19.4259 72.0077 19.4121C72.0146 19.4121 72.0215 19.4121 72.0284 19.4052H72.0629C72.1767 19.3708 72.2871 19.3328 72.394 19.2845C72.4078 19.2776 72.4284 19.2707 72.4457 19.2639C72.5526 19.2225 72.6698 19.1707 72.7629 19.1121C72.8354 19.0707 72.9078 19.0328 72.9698 18.9742C73.6457 18.5431 74.1354 17.8328 74.2906 17.0189C74.3423 16.8189 74.363 16.6155 74.363 16.4086C74.363 16.1568 74.3354 15.9189 74.2768 15.6913Z" fill="#1A1A1A"/>
</svg>