<svg width="218" height="162" viewBox="0 0 218 162" fill="none" xmlns="http://www.w3.org/2000/svg">
<path fill-rule="evenodd" clip-rule="evenodd" d="M128.352 128.06C124.75 127.299 102.781 127.299 99.1725 128.06C96.0879 128.771 92.749 130.432 92.7362 134.059C92.9031 137.512 94.9207 140.574 97.7236 142.511C101.34 145.347 105.599 147.139 110.062 147.784C112.441 148.111 114.863 148.104 117.33 147.784C121.791 147.139 126.062 145.347 129.706 142.518C132.515 140.574 134.555 137.512 134.746 134.059C134.759 130.432 131.432 128.771 128.352 128.06ZM153.991 22.8782C144.93 11.0828 129.63 3.97363 114.628 3.97363H113.983C99.2963 3.97363 84.4279 10.7563 75.1271 22.0657C68.8709 29.8205 65.818 37.7421 65.7751 49.8567L65.7642 52.9252C65.7321 61.9712 63.4769 67.3031 58.022 73.4474C54.0207 77.9741 52.7171 83.7847 52.6947 90.0886C52.6724 96.3853 54.7299 102.363 58.8628 107.216C64.2681 113.034 71.9172 116.748 79.7421 117.394C91.0697 118.685 102.4 119.171 113.897 119.171C125.387 119.171 136.729 118.358 148.065 117.394C155.887 116.748 163.563 113.034 169.016 107.216C173.184 102.363 175.276 96.3853 175.299 90.0886C175.321 83.7847 174.066 77.9741 170.089 73.4474C164.843 67.3031 162.468 61.9712 162.5 52.9252L162.511 49.8567C162.553 38.0613 159.87 30.4734 153.991 22.8782ZM132.08 23.6345C132.3 21.5556 134.115 20.0584 136.15 20.256C142.61 21.0882 147.912 25.9542 149.334 32.3776L149.467 32.9204C149.798 34.8734 148.561 36.7546 146.695 37.2503C145.663 37.3936 144.591 37.1703 143.76 36.547C142.93 35.9236 142.368 34.9905 142.2 33.9252L142.165 33.7838C141.387 30.5953 138.72 28.1831 135.516 27.785C133.426 27.5618 131.906 25.7025 132.08 23.6345Z" fill="#804D00"/>
<path d="M38.5 14C38.3674 14 38.2402 13.9789 38.1464 13.9413C38.0527 13.9037 38 13.8528 38 13.7996V5.20038C38 5.14724 38.0527 5.09627 38.1464 5.05869C38.2402 5.02111 38.3674 5 38.5 5C38.6326 5 38.7598 5.02111 38.8536 5.05869C38.9473 5.09627 39 5.14724 39 5.20038V13.7996C38.9999 13.8527 38.9472 13.9037 38.8534 13.9413C38.7597 13.9788 38.6326 14 38.5 14Z" fill="#804D00"/>
<path d="M42.7 10H34.2999C34.2204 10 34.1441 9.94732 34.0878 9.85355C34.0316 9.75979 34 9.63261 34 9.50001C34 9.3674 34.0316 9.24021 34.0878 9.14645C34.1441 9.05268 34.2204 9 34.2999 9H42.7C42.7796 9 42.8559 9.05268 42.9121 9.14645C42.9684 9.24021 43 9.3674 43 9.50001C43 9.63261 42.9684 9.75979 42.9121 9.85355C42.8559 9.94732 42.7796 10 42.7 10Z" fill="#804D00"/>
<path d="M4.50001 55C4.3674 55 4.24022 54.9789 4.14645 54.9413C4.05268 54.9037 4 54.8528 4 54.7996V46.2004C4 46.1472 4.05268 46.0963 4.14645 46.0587C4.24022 46.0211 4.3674 46 4.50001 46C4.63262 46 4.75978 46.0211 4.85355 46.0587C4.94732 46.0963 5 46.1472 5 46.2004V54.7996C4.99989 54.8527 4.94719 54.9037 4.85345 54.9413C4.7597 54.9788 4.63259 55 4.50001 55Z" fill="#804D00"/>
<path d="M8.70005 51H0.299938C0.220387 51 0.144089 50.9473 0.0878376 50.8536C0.0315863 50.7598 0 50.6326 0 50.5C0 50.3674 0.0315863 50.2402 0.0878376 50.1464C0.144089 50.0527 0.220387 50 0.299938 50H8.70005C8.7796 50 8.8559 50.0527 8.91215 50.1464C8.9684 50.2402 9 50.3674 9 50.5C9 50.6326 8.9684 50.7598 8.91215 50.8536C8.8559 50.9473 8.7796 51 8.70005 51Z" fill="#804D00"/>
<path d="M213.5 54C213.367 54 213.24 53.9789 213.146 53.9413C213.053 53.9037 213 53.8528 213 53.7996V45.2004C213 45.1472 213.053 45.0963 213.146 45.0587C213.24 45.0211 213.367 45 213.5 45C213.633 45 213.76 45.0211 213.854 45.0587C213.947 45.0963 214 45.1472 214 45.2004V53.7996C214 53.8527 213.947 53.9037 213.853 53.9413C213.76 53.9788 213.633 54 213.5 54Z" fill="#804D00"/>
<path d="M217.7 50H209.3C209.22 50 209.144 49.9473 209.088 49.8536C209.032 49.7598 209 49.6326 209 49.5C209 49.3674 209.032 49.2402 209.088 49.1464C209.144 49.0527 209.22 49 209.3 49H217.7C217.78 49 217.856 49.0527 217.912 49.1464C217.968 49.2402 218 49.3674 218 49.5C218 49.6326 217.968 49.7598 217.912 49.8536C217.856 49.9473 217.78 50 217.7 50Z" fill="#804D00"/>
<path d="M24.5 97C24.3674 97 24.2402 96.9789 24.1464 96.9413C24.0527 96.9037 24 96.8528 24 96.7996V88.2004C24 88.1472 24.0527 88.0963 24.1464 88.0587C24.2402 88.0211 24.3674 88 24.5 88C24.6326 88 24.7598 88.0211 24.8536 88.0587C24.9473 88.0963 25 88.1472 25 88.2004V96.7996C24.9999 96.8527 24.9472 96.9037 24.8534 96.9413C24.7597 96.9788 24.6326 97 24.5 97Z" fill="#804D00"/>
<path d="M28.7 93H20.2999C20.2204 93 20.1441 92.9473 20.0878 92.8536C20.0316 92.7598 20 92.6326 20 92.5C20 92.3674 20.0316 92.2402 20.0878 92.1464C20.1441 92.0527 20.2204 92 20.2999 92H28.7C28.7796 92 28.8559 92.0527 28.9121 92.1464C28.9684 92.2402 29 92.3674 29 92.5C29 92.6326 28.9684 92.7598 28.9121 92.8536C28.8559 92.9473 28.7796 93 28.7 93Z" fill="#804D00"/>
<path d="M44.5 154C44.3674 154 44.2402 153.979 44.1464 153.941C44.0527 153.904 44 153.853 44 153.8V145.2C44 145.147 44.0527 145.096 44.1464 145.059C44.2402 145.021 44.3674 145 44.5 145C44.6326 145 44.7598 145.021 44.8536 145.059C44.9473 145.096 45 145.147 45 145.2V153.8C44.9999 153.853 44.9472 153.904 44.8534 153.941C44.7597 153.979 44.6326 154 44.5 154Z" fill="#804D00"/>
<path d="M48.7 150H40.2999C40.2204 150 40.1441 149.947 40.0878 149.854C40.0316 149.76 40 149.633 40 149.5C40 149.367 40.0316 149.24 40.0878 149.146C40.1441 149.053 40.2204 149 40.2999 149H48.7C48.7796 149 48.8559 149.053 48.9121 149.146C48.9684 149.24 49 149.367 49 149.5C49 149.633 48.9684 149.76 48.9121 149.854C48.8559 149.947 48.7796 150 48.7 150Z" fill="#804D00"/>
<path d="M192.5 127C192.367 127 192.24 126.979 192.146 126.941C192.053 126.904 192 126.853 192 126.8V118.2C192 118.147 192.053 118.096 192.146 118.059C192.24 118.021 192.367 118 192.5 118C192.633 118 192.76 118.021 192.854 118.059C192.947 118.096 193 118.147 193 118.2V126.8C193 126.853 192.947 126.904 192.853 126.941C192.76 126.979 192.633 127 192.5 127Z" fill="#804D00"/>
<path d="M196.7 123H188.3C188.22 123 188.144 122.947 188.088 122.854C188.032 122.76 188 122.633 188 122.5C188 122.367 188.032 122.24 188.088 122.146C188.144 122.053 188.22 122 188.3 122H196.7C196.78 122 196.856 122.053 196.912 122.146C196.968 122.24 197 122.367 197 122.5C197 122.633 196.968 122.76 196.912 122.854C196.856 122.947 196.78 123 196.7 123Z" fill="#804D00"/>
<path d="M134.5 162C134.367 162 134.24 161.979 134.146 161.941C134.053 161.904 134 161.853 134 161.8V153.2C134 153.147 134.053 153.096 134.146 153.059C134.24 153.021 134.367 153 134.5 153C134.633 153 134.76 153.021 134.854 153.059C134.947 153.096 135 153.147 135 153.2V161.8C135 161.853 134.947 161.904 134.853 161.941C134.76 161.979 134.633 162 134.5 162Z" fill="#804D00"/>
<path d="M138.7 158H130.3C130.22 158 130.144 157.947 130.088 157.854C130.032 157.76 130 157.633 130 157.5C130 157.367 130.032 157.24 130.088 157.146C130.144 157.053 130.22 157 130.3 157H138.7C138.78 157 138.856 157.053 138.912 157.146C138.968 157.24 139 157.367 139 157.5C139 157.633 138.968 157.76 138.912 157.854C138.856 157.947 138.78 158 138.7 158Z" fill="#804D00"/>
<path d="M197.5 9C197.367 9 197.24 8.97889 197.146 8.94131C197.053 8.90373 197 8.85276 197 8.79961V0.200383C197 0.147237 197.053 0.096271 197.146 0.0586916C197.24 0.0211122 197.367 0 197.5 0C197.633 0 197.76 0.0211122 197.854 0.0586916C197.947 0.096271 198 0.147237 198 0.200383V8.79961C198 8.85274 197.947 8.90369 197.853 8.94126C197.76 8.97882 197.633 8.99995 197.5 9Z" fill="#804D00"/>
<path d="M201.7 5H193.3C193.22 5 193.144 4.94732 193.088 4.85355C193.032 4.75979 193 4.63261 193 4.50001C193 4.3674 193.032 4.24021 193.088 4.14645C193.144 4.05268 193.22 4 193.3 4H201.7C201.78 4 201.856 4.05268 201.912 4.14645C201.968 4.24021 202 4.3674 202 4.50001C202 4.63261 201.968 4.75979 201.912 4.85355C201.856 4.94732 201.78 5 201.7 5Z" fill="#804D00"/>
</svg>
